<svg xmlns="http://www.w3.org/2000/svg" width="367.221" height="55.402" viewBox="0 0 367.221 55.402">
  <g id="Grupo_1" data-name="Grupo 1" transform="translate(755.309 -1110.354)">
    <g id="Grupo_2" data-name="Grupo 2" transform="translate(-755.309 1110.354)">
      <path id="Trazado_1" data-name="Trazado 1" d="M303.544,93.63a8.19,8.19,0,0,1-8.791-.281,10.9,10.9,0,0,0-9.245-1.477,15.99,15.99,0,0,0-3.458,1.669,7.844,7.844,0,0,1-8.149.243c-2.683-1.539-5.35-2.72-8.785-2.182.548-.85.96-1.418,1.3-2.031a18.992,18.992,0,0,0,2.382-7.53,2.062,2.062,0,0,1,.96-1.308c1-.592,2.1-1.012,3.5-1.664-.937-.364-1.457-.53-1.948-.767a3.471,3.471,0,0,1-2.243-3.522,32.93,32.93,0,0,0-.6-6.3,7.333,7.333,0,0,0-3.677-5.346,6.291,6.291,0,0,1-1.249-1.282c.522-.373,1-.944,1.573-1.089a18.565,18.565,0,0,1,10.608.852c8.135,2.723,13.357,8.64,16.619,16.659a37.727,37.727,0,0,0,8.74,13.16C301.8,92.132,302.578,92.775,303.544,93.63Z" transform="translate(-253.618 -60.317)"/>
      <path id="Trazado_13" data-name="Trazado 13" d="M246.89,192.74c2.063,1.069,4.1,1.68,5.839,3.12,3.522,2.928,6.862,3.189,10.369.083,3.988-3.534,8.078-3.551,12.077-.052,3.551,3.106,6.923,2.919,10.515-.052,1.638-1.357,3.659-1.71,5.529-2.391.847-.31,1.6.5,1.532,1.667-.041.768-.817,2.029-1.295,2.059-2.2.144-3.973,1.7-5.854,3.119-3.692,2.788-7.471,2.762-11.04-.462s-6.994-3.338-10.6-.127c-3.935,3.508-8,3.469-11.936-.035-3.492-3.115-6.815-3.019-10.357-.074-1.606,1.335-3.542,1.846-5.365,2.535-.841.318-1.74-.048-1.872-1.658s.662-1.9,1.547-2.256c1.72-.694,3.39-1.654,5.08-2.509C242.964,194.738,244.868,193.765,246.89,192.74Z" transform="translate(-234.421 -146.917)"/>
      <path id="Trazado_14" data-name="Trazado 14" d="M281.208,185.492c-1.9-1.02-3.957-1.636-5.674-3.147-3.654-3.212-7.122-3.414-10.764-.1-4.038,3.676-8.205,3.717-12.241.055-3.642-3.3-7.086-3.156-10.775-.051-1.687,1.42-3.738,1.916-5.668,2.495-.468.142-1.435-.868-1.594-1.631-.309-1.475.558-2.329,1.39-2.32,2.114.023,3.84-1.443,5.611-2.881,3.885-3.152,7.83-3.124,11.6.248,3.678,3.285,7.17,3.455,10.875.092,3.981-3.611,8.136-3.552,12.133,0,3.636,3.235,7.083,3.276,10.763.06,1.6-1.4,3.555-1.865,5.374-2.605,1-.409,1.925.225,2.012,1.884.081,1.53-.748,1.925-1.693,2.261a18.142,18.142,0,0,0-4.9,2.522c-2.018,1.521-4.029,2.683-6.314,2.444C281.3,185.041,281.253,185.266,281.208,185.492Z" transform="translate(-234.424 -139.669)"/>
    </g>
    <g id="Grupo_1-2" data-name="Grupo 1" transform="translate(-682.13 1119.397)">
      <path id="Trazado_2" data-name="Trazado 2" d="M579.709,310.325H573.02V267.278c7.042-3.445,9.34,2.676,12.306,7.97a58.9,58.9,0,0,0,3.385-5.462c1.195-2.491,2.778-3.67,5.326-3.208a22.45,22.45,0,0,0,3.769.035v43.665h-6.48V279.5c-.22-.087-.444-.168-.664-.254-1.68,2.664-3.36,5.329-5.254,8.34-1.808-2.948-3.513-5.728-5.214-8.508l-.48.139C579.709,289.536,579.709,299.852,579.709,310.325Z" transform="translate(-303.765 -266.014)"/>
      <path id="Trazado_3" data-name="Trazado 3" d="M216.965,310.384h-6.929c0-3.687.01-7.236,0-10.779-.02-6.577-2.323-8.7-8.461-7.485v18.212H194.89V266.36c5.06.347,10.116-.156,14.747,1.2,7.884,2.306,10.366,13.536,4.294,20.87C218.507,294.975,216.322,302.714,216.965,310.384Zm-15.314-26.228c3.125-.162,6.465,1.1,8.216-2.56a6.681,6.681,0,0,0-.3-5.213c-1.935-3.109-5.04-2.1-7.915-2.1Z" transform="translate(-118.723 -266.05)"/>
      <path id="Trazado_4" data-name="Trazado 4" d="M480.707,291.412v18.957H474.12V266.49c4.9.254,9.626-.058,14.155.861,7.338,1.491,10.632,12.033,6.306,19.067-.429.7-.945,1.341-1.4,1.988,3.059,6.005,3.784,12.085,2.609,22h-6.409c0-3.734.036-7.537-.01-11.34-.031-2.456-.245-5.109-2.456-6.207C485.14,291.978,483.056,291.921,480.707,291.412Zm.148-7.126c2.992-.358,6.306,1.139,8.15-2.531a6.58,6.58,0,0,0-.026-4.994c-1.864-3.549-5.122-2.318-8.119-2.485C480.855,277.7,480.855,280.812,480.855,284.286Z" transform="translate(-255.367 -266.105)"/>
      <path id="Trazado_5" data-name="Trazado 5" d="M103.159,284.151h8.385V267.158h6.526v43.515h-6.46V292.265h-8.283v18.374H96.71V267.06h6.449Z" transform="translate(-70.678 -266.345)"/>
      <path id="Trazado_6" data-name="Trazado 6" d="M445.064,281.34h-6.357c-.194-1.364-.347-2.67-.567-3.965-.429-2.5-1.828-4.057-4.034-3.936-2.18.116-3.631,1.763-3.779,4.283-.189,3.26-.128,6.537-.148,9.808-.02,3.179-.031,6.352.005,9.531.041,3.849,1.557,6.161,4.024,6.248,2.42.081,4.121-2.312,4.274-6.051.026-.555-.051-1.121-.087-1.838-1.348-.1-2.594-.191-3.978-.289-.066-.8-.163-1.555-.174-2.3-.026-1.618-.01-3.237-.01-5.023h10.938c-.444,6.2,1.323,12.571-2.349,18.171-2.584,3.936-6.95,5.855-11.035,4.589-4.386-1.358-7.639-4.606-7.966-9.733a202.917,202.917,0,0,1-.158-23.9c.357-6.618,5.4-11.259,10.8-11.1,5.586.162,9.876,4.768,10.586,11.444C445.176,278.49,445.064,279.745,445.064,281.34Z" transform="translate(-230.539 -265.823)"/>
      <path id="Trazado_7" data-name="Trazado 7" d="M270.466,310.472a.733.733,0,0,1-.214.1c-6.577.537-6.572.532-9.34-6.231-1.629-3.976-3.263-7.947-5.081-12.368-3.712,6.057-.95,12.473-2.252,18.495H247.37V267.009H253.8v13.883l.613.26c1.062-1.757,2.134-3.5,3.181-5.265a28.178,28.178,0,0,0,2.482-4.358c1.8-4.872,5.1-5.5,9.518-4.369-1.573,2.838-3.094,5.554-4.586,8.294-1.644,3.023-4.361,5.97-4.565,9.126-.194,3.017,2.226,6.259,3.513,9.392q3.271,7.985,6.552,15.958C270.563,310.073,270.482,310.287,270.466,310.472Z" transform="translate(-144.405 -266.184)"/>
      <path id="Trazado_8" data-name="Trazado 8" d="M290.78,295.409h6.7a40.717,40.717,0,0,0,.5,4.4c.49,2.2,1.961,3.826,3.84,3.422a6.636,6.636,0,0,0,3.774-3.19,3.807,3.807,0,0,0-1.414-4.976c-2.589-1.838-5.321-3.427-7.894-5.294-3.978-2.878-5.5-7.259-5.163-12.4.332-4.907,2.645-8.444,6.684-10.392,6.424-3.1,13.854,1.751,14.64,9.617.225,2.26.036,4.578.036,7.028H306.13c-.066-1.676-.123-3.37-.2-5.063-.117-2.433-.96-4.635-3.207-4.832a5.412,5.412,0,0,0-4.1,1.925,5.236,5.236,0,0,0,.128,6.387,12.3,12.3,0,0,0,3.191,2.8c1.951,1.37,4.049,2.468,5.949,3.907,4.473,3.393,5.883,8.219,4.2,13.808-1.619,5.346-5.8,8.635-10.718,8.415-4.729-.208-8.9-4.086-10-9.513C290.994,299.606,290.989,297.658,290.78,295.409Z" transform="translate(-165.648 -265.912)"/>
      <path id="Trazado_9" data-name="Trazado 9" d="M67.4,283.7H61.085c-.071-1.728-.128-3.416-.214-5.1-.128-2.416-.945-4.329-3.171-4.988-1.894-.561-3.375.358-4.34,2.156a5.756,5.756,0,0,0,.439,6.45,13.82,13.82,0,0,0,3.253,2.711c2.374,1.688,4.979,3.023,7.144,4.988,3.554,3.219,4.391,8.433,2.589,13.368-1.828,5-5.964,7.97-10.677,7.658-4.534-.3-8.563-3.976-9.723-9.167a54.7,54.7,0,0,1-.654-6.387h6.756c.066,1.26.056,2.4.2,3.52.327,2.456,1.542,4.127,3.774,4.387,2.032.237,3.437-1.069,4.106-3.144a4.406,4.406,0,0,0-1.843-5.4c-2.487-1.67-5.045-3.2-7.481-4.965-3.968-2.872-5.556-7.225-5.219-12.374.332-5.034,2.727-8.6,6.889-10.531,6.327-2.924,13.69,1.959,14.436,9.652C67.58,278.807,67.4,281.125,67.4,283.7Z" transform="translate(-45.73 -265.909)"/>
      <path id="Trazado_10" data-name="Trazado 10" d="M538.162,310.649c-1.231-4.7-1.256-4.358-5.5-4.78-3.559-.358-3.12,2.451-3.569,4.826H522.46c2.318-14.536,4.616-28.95,6.935-43.515h8.579c2.221,14.484,4.422,28.846,6.664,43.469Zm-1.976-11.45c-.776-6.063-1.522-11.848-2.262-17.634-.163-.023-.332-.04-.5-.064-.832,5.849-1.665,11.7-2.517,17.7Z" transform="translate(-279.023 -266.396)"/>
      <path id="Trazado_11" data-name="Trazado 11" d="M151.235,267.026a8.294,8.294,0,0,1,1.042-.214c7.6-.381,7.532-.37,8.778,8.178,1.547,10.635,3.232,21.246,4.851,31.869.174,1.133.306,2.271.49,3.618h-6.587c-.363-2.381-.036-5.242-3.677-4.82-3.952.457-3.988.092-5.408,4.855H144.29C146.629,295.866,148.942,281.4,151.235,267.026Zm4.54,14.374c-.184.029-.368.052-.551.081-.812,5.791-1.624,11.582-2.446,17.449h5.244C157.255,292.965,156.515,287.18,155.774,281.4Z" transform="translate(-93.961 -266.19)"/>
      <path id="Trazado_12" data-name="Trazado 12" d="M392.263,266.828c2.242,14.657,4.453,29.118,6.689,43.746H392.5c-1.231-4.861-1.231-4.861-6.1-4.774-2.078.04-2.078.04-3.135,4.751h-6.48c.919-5.757,1.818-11.317,2.7-16.888,1.3-8.138,2.635-16.27,3.845-24.419.281-1.9.929-2.6,2.635-2.456C387.973,266.955,390.011,266.828,392.263,266.828Zm-7.011,32.1H390.5c-.8-6.161-1.563-12.091-2.334-18.021-.128.017-.255.029-.383.046C386.942,286.895,386.1,292.842,385.251,298.928Z" transform="translate(-207.733 -266.223)"/>
      <path id="Trazado_15" data-name="Trazado 15" d="M358.3,274.735h-7.215v36h-6.766v-35.9H336.95V267.21H358.3C358.3,269.574,358.3,271.926,358.3,274.735Z" transform="translate(-188.242 -266.409)"/>
    </g>
  </g>
</svg>
