<svg xmlns="http://www.w3.org/2000/svg" width="94" height="73" viewBox="0 0 94 73">
  <g id="comment-sea" transform="translate(0 -49.506)">
    <g id="Grupo_8" data-name="Grupo 8" transform="translate(72.249 119.423)">
      <g id="Grupo_7" data-name="Grupo 7">
        <path id="Trazado_34" data-name="Trazado 34" d="M397.919,445.5c-.937-.135-1.873-.279-2.782-.427a1.372,1.372,0,0,0-1.587,1.086,1.332,1.332,0,0,0,1.128,1.528c.926.151,1.879.3,2.833.435a1.43,1.43,0,0,0,.206.015,1.362,1.362,0,0,0,1.36-1.129A1.334,1.334,0,0,0,397.919,445.5Z" transform="translate(-393.53 -445.055)"/>
      </g>
    </g>
    <g id="Grupo_10" data-name="Grupo 10" transform="translate(0 49.506)">
      <g id="Grupo_9" data-name="Grupo 9">
        <path id="Trazado_35" data-name="Trazado 35" d="M92.8,111.364c-9.048-1.131-20.148-4.628-29.695-9.356C52.7,96.854,45.139,90.843,41.813,85.08c-2.171-3.761-2.48-7.341-.919-10.641A8.591,8.591,0,0,1,46.3,69.992a14.013,14.013,0,0,1,3.366-.647c.121.165.241.33.358.5a5.436,5.436,0,0,0,4.532,2.507,5.892,5.892,0,0,0,1.248-.137,6.988,6.988,0,0,0,5.3-5.559c.417-2.754-1.159-5.316-4.327-7.027-.351-.189-.7-.369-1.059-.544a11.886,11.886,0,0,0-4.871-7.169c-3.514-2.4-8.338-3.009-14.338-1.816-8.115,1.613-16.124,6.194-24.483,14A1.291,1.291,0,0,0,12,65.976,1.415,1.415,0,0,0,13.946,66c7.972-7.447,15.535-11.8,23.122-13.309,5.2-1.034,9.289-.577,12.153,1.358a9.16,9.16,0,0,1,3.1,3.6q-.775-.272-1.554-.5a1.385,1.385,0,0,0-1.714.89,1.318,1.318,0,0,0,.925,1.65,27.527,27.527,0,0,1,5.454,2.247c2.181,1.178,3.2,2.676,2.949,4.332A4.324,4.324,0,0,1,55.2,69.627a2.63,2.63,0,0,1-2.884-1.254,24.2,24.2,0,0,0-10.045-8.4,19.824,19.824,0,0,0-2.839-.988,25.608,25.608,0,0,1,4.985-.232,1.327,1.327,0,1,0,.153-2.647c-7.526-.4-15.563,2.343-23.24,7.938a56.275,56.275,0,0,0-9.06,8.233,35.875,35.875,0,0,0-6.11,2.158c1.108-1.386,2.454-2.975,4.019-4.654a1.291,1.291,0,0,0-.1-1.872,1.414,1.414,0,0,0-1.944.1A74.068,74.068,0,0,0,.205,77.975a1.285,1.285,0,0,0,.053,1.469,1.412,1.412,0,0,0,1.921.3,33.5,33.5,0,0,1,12.382-5.257c2.678-.518,6.418-.741,8.143.334,1.146.714,1.584,1.734,1.145,2.663-.592,1.252-2.647,2.112-5.9,1.208a14.323,14.323,0,0,0-8.869.016,9.5,9.5,0,0,0-5.2,4.538,10.626,10.626,0,0,0-.969,7.032,10.27,10.27,0,0,0,3.118,5.574A14.335,14.335,0,0,0,4.576,99.5c-.945,3.755-.172,7.89,2.235,11.957a24.489,24.489,0,0,0,3.91,5.011,1.415,1.415,0,0,0,1.947-.03,1.291,1.291,0,0,0-.031-1.875c-.073-.068-7.281-6.9-5.384-14.44A10.941,10.941,0,0,1,14,92.365a19,19,0,0,1,10.381-.93c4.34.779,7.537,2.876,7.278,4.776a1.386,1.386,0,0,1-.573,1.04,2.259,2.259,0,0,1-1.7.189c-.04-.009-.081-.016-.121-.022a7.288,7.288,0,0,0-1.87-1.7,1.41,1.41,0,0,0-1.909.368,1.3,1.3,0,0,0,.382,1.838,3.277,3.277,0,0,1,1.789,3.324,3.48,3.48,0,0,1-2.222,2.758,2.342,2.342,0,0,1-2.456-.755c-3.05-3.048-6.815-4.375-9.824-3.464a5.031,5.031,0,0,0-3.657,4.087,1.333,1.333,0,0,0,1.144,1.518,1.372,1.372,0,0,0,1.576-1.1,2.378,2.378,0,0,1,1.763-1.975c2.4-.726,5.28,1.041,7.015,2.775a5.346,5.346,0,0,0,3.788,1.67,5.02,5.02,0,0,0,1.506-.234,5.992,5.992,0,0,0,3.363-2.787,40.354,40.354,0,0,0,6.908,5.521c5.426,3.529,15.138,8.412,30.6,11.633a1.429,1.429,0,0,0,.293.03,1.367,1.367,0,0,0,1.344-1.046,1.327,1.327,0,0,0-1.055-1.576c-14.906-3.106-24.248-7.764-29.46-11.124-5.6-3.611-7.756-6.533-7.8-6.592-.015-.021-.032-.041-.048-.061q-.009-.189-.032-.375a4.588,4.588,0,0,0,2.25-.723,3.981,3.981,0,0,0,1.74-2.877c.253-1.854-.72-3.67-2.741-5.112a17.092,17.092,0,0,0-6.762-2.616c-6.084-1.091-13.118.16-17.26,4.811a8.047,8.047,0,0,1-1.286-9.19c.858-1.631,3.633-5.207,10.85-3.2,4.833,1.34,8.088-.369,9.171-2.657,1.015-2.146.149-4.552-2.155-5.988-1.621-1.01-4.293-1.39-7.476-1.1a55.533,55.533,0,0,1,6.321-5.382,45.041,45.041,0,0,1,6.973-4.187l.024-.008a14.618,14.618,0,0,1,11.095.468,20.667,20.667,0,0,1,6.479,4.536c-2.782.5-7.13,1.979-9.229,6.415-1.943,4.108-1.6,8.491,1.018,13.028,7.7,13.336,34.13,25.262,53.039,27.624a1.428,1.428,0,0,0,.179.011,1.361,1.361,0,0,0,1.364-1.155A1.337,1.337,0,0,0,92.8,111.364Z" transform="translate(0 -49.506)"/>
      </g>
    </g>
    <g id="Grupo_12" data-name="Grupo 12" transform="translate(31.632 82.672)">
      <g id="Grupo_11" data-name="Grupo 11">
        <path id="Trazado_36" data-name="Trazado 36" d="M175.571,239.612c-.218-.52-.417-1.044-.591-1.556a1.389,1.389,0,0,0-1.736-.848,1.316,1.316,0,0,0-.881,1.672c.193.569.413,1.149.655,1.725a1.378,1.378,0,0,0,1.277.83,1.421,1.421,0,0,0,.515-.1A1.31,1.31,0,0,0,175.571,239.612Z" transform="translate(-172.294 -237.142)"/>
      </g>
    </g>
    <g id="Grupo_14" data-name="Grupo 14" transform="translate(30.551 64.24)">
      <g id="Grupo_13" data-name="Grupo 13">
        <path id="Trazado_37" data-name="Trazado 37" d="M175.167,133.447a1.41,1.41,0,0,0-1.912-.357,16.431,16.431,0,0,0-6.811,14.521,1.356,1.356,0,0,0,1.373,1.244l.086,0a1.344,1.344,0,0,0,1.29-1.4,13.793,13.793,0,0,1,5.606-12.162A1.3,1.3,0,0,0,175.167,133.447Z" transform="translate(-166.406 -132.863)"/>
      </g>
    </g>
    <g id="Grupo_16" data-name="Grupo 16" transform="translate(27.15 116.296)">
      <g id="Grupo_15" data-name="Grupo 15" transform="translate(0 0)">
        <path id="Trazado_38" data-name="Trazado 38" d="M152.4,428.746c-.843-.378-1.675-.786-2.472-1.212a1.406,1.406,0,0,0-1.872.515,1.3,1.3,0,0,0,.535,1.8c.855.457,1.745.894,2.648,1.3a1.417,1.417,0,0,0,.58.124,1.382,1.382,0,0,0,1.249-.767A1.3,1.3,0,0,0,152.4,428.746Z" transform="translate(-147.88 -427.367)"/>
      </g>
    </g>
    <g id="Grupo_18" data-name="Grupo 18" transform="translate(15.176 105.685)">
      <g id="Grupo_17" data-name="Grupo 17">
        <path id="Trazado_39" data-name="Trazado 39" d="M91.9,375.057a25.764,25.764,0,0,1-6.641-7.016,1.4,1.4,0,0,0-1.858-.555,1.3,1.3,0,0,0-.579,1.79A27.8,27.8,0,0,0,90.2,377.14a1.414,1.414,0,0,0,1.934-.221A1.293,1.293,0,0,0,91.9,375.057Z" transform="translate(-82.665 -367.334)"/>
      </g>
    </g>
  </g>
</svg>
