<svg xmlns="http://www.w3.org/2000/svg" width="94" height="73" viewBox="0 0 94 73">
  <g id="comment-sea-active" transform="translate(0 -41.498)">
    <path id="Trazado_16" data-name="Trazado 16" d="M57.143,48.21C45.851,49.516,29.478,60.011,22,72.15c12.009-4.46,40.142-9.43,41.055-9.271l9.129-4.2S73.345,46.337,57.143,48.21Z" transform="translate(-17.962 -5.41)" fill="#e8faff"/>
    <path id="Trazado_17" data-name="Trazado 17" d="M113.759,158.645s-1.017-.25-2.418-.469c-24.079-3.763-59.207-20.488-51.519-36.2,2.813-5.747,10.731-6.572,10.731-6.572v-6.06H50.65l-16.973,11.22c4.23-.862,7.841-.693,9.636.388,4.158,2.5,1.345,7.966-5.87,6.032-13.586-3.643-16.631,10.242-9.416,15.478l2.452,12.985L74.13,169.436l39.654-.007Z" transform="translate(-19.785 -56.304)" fill="#b2edff"/>
    <path id="Trazado_18" data-name="Trazado 18" d="M98.012,153.144c-19.495-5.843-42.973-18.1-44.61-30.639-.795-6.089,0-12.632,11.862-17.241L63.6,103.883a27.762,27.762,0,0,0-25.453,5.5L30.477,116c.1-.034.2-.074.31-.106,5.441-1.633,10.333-1.647,12.526-.326,4.158,2.5,1.345,7.966-5.87,6.032-13.586-3.643-16.631,10.242-9.416,15.478l1.069,5.662,21.672-6.615a45.005,45.005,0,0,0,10.387,9.036,1.535,1.535,0,0,0,.836.244,1.5,1.5,0,0,0,1.207-.586,1.308,1.308,0,0,0-.368-1.9c-6.278-4.062-10.694-8.78-13.151-13.779a1.386,1.386,0,0,1,.691-1.837,1.477,1.477,0,0,1,1.963.624c6.944,13.338,30.647,23.59,44.778,27.825a1.592,1.592,0,0,0,.45.065,1.461,1.461,0,0,0,1.4-.947A1.349,1.349,0,0,0,98.012,153.144Z" transform="translate(-19.785 -50.912)" fill="#00c3ff"/>
    <path id="Trazado_19" data-name="Trazado 19" d="M201.866,88.564a24.219,24.219,0,0,0-11.581-3.233,36.768,36.768,0,0,0-11.725,1.91c7.183.681,14.992,4.612,18.384,9.346C201.056,102.328,209.662,93.856,201.866,88.564Z" transform="translate(-145.778 -36.375)" fill="#d1f4ff"/>
    <path id="Trazado_20" data-name="Trazado 20" d="M64.015,318.13s17.623,22.648,66.4,23.1a1.429,1.429,0,0,1,1.47,1.365h0a1.427,1.427,0,0,1-1.475,1.373H70.985c-6.641,0-15.653-2.731-21.278-9.56-4.706-5.713-2.935-16.388-2.935-16.388Z" transform="translate(-37.918 -229.466)" fill="#00c3ff"/>
    <path id="Trazado_21" data-name="Trazado 21" d="M130.626,341.232H86.569c-11.924,0-20.452-3.777-25.943-8.76-2.028-1.84-.549-5.057,2.283-5.043h.028a7.343,7.343,0,0,0,6.533-4.274,35.246,35.246,0,0,1-5.279-5.025l-17.243-.114s-1.771,10.675,2.935,16.388c5.625,6.828,14.638,9.56,21.278,9.56h59.425a1.369,1.369,0,1,0,.04-2.731Z" transform="translate(-38.062 -229.466)" fill="#00aaf0"/>
    <g id="Grupo_5" data-name="Grupo 5" transform="translate(45.411 94.475)">
      <path id="Trazado_22" data-name="Trazado 22" d="M452.077,410.731a1.547,1.547,0,0,1-.31-.031q-1.233-.246-2.565-.56a1.362,1.362,0,0,1-1.064-1.658,1.479,1.479,0,0,1,1.782-.991q1.278.3,2.464.539a1.369,1.369,0,0,1,1.126,1.622A1.447,1.447,0,0,1,452.077,410.731Z" transform="translate(-411.238 -398.156)" fill="#59d8ff"/>
      <path id="Trazado_23" data-name="Trazado 23" d="M250.718,356.527a1.541,1.541,0,0,1-.676-.155q-.992-.48-1.946-.982a1.316,1.316,0,0,1-.556-1.861,1.527,1.527,0,0,1,2-.519q.912.48,1.859.939a1.32,1.32,0,0,1,.623,1.842A1.484,1.484,0,0,1,250.718,356.527Z" transform="translate(-247.35 -352.834)" fill="#59d8ff"/>
    </g>
    <g id="Grupo_6" data-name="Grupo 6" transform="translate(4.449 51.677)">
      <path id="Trazado_24" data-name="Trazado 24" d="M40.212,210.473a11.041,11.041,0,0,1-2.769-.393c-13.586-3.643-16.631,10.242-9.416,15.478l1.069,5.662,14.617-4.462c-.645-1.37-1.271-2.79-1.868-4.272A22.394,22.394,0,0,1,40.212,210.473Z" transform="translate(-24.234 -191.074)" fill="#00aaf0"/>
      <path id="Trazado_25" data-name="Trazado 25" d="M86.253,101.321a20.461,20.461,0,0,0-12.771,4.409L62.54,114.493c4.75-1.35,9.008-1.458,11.354-.515,5.01-8.677,15.367-12.657,15.367-12.657Z" transform="translate(-55.507 -101.321)" fill="#00aaf0"/>
    </g>
    <path id="Trazado_26" data-name="Trazado 26" d="M31.318,278.264c-2.1,8.063,5.748,15.136,5.748,15.136s-4.2-6.792-1.009-11.693c2.109-3.243,6.42-3.926,11.281.768,3.7,3.578,8.787-1.487,6.436-5.319,2.127.365,4.309-.346,4.57-2.193C59.3,268.188,35.109,263.7,31.318,278.264Z" transform="translate(-25.277 -188.462)" fill="#e8faff"/>
    <path id="Trazado_27" data-name="Trazado 27" d="M44.718,302.065c2.109-3.243,6.42-3.926,11.281.768,3.7,3.578,8.787-1.487,6.436-5.319-4.357-5.493-15.333-6.119-19.093-.144-3.908,6.209-.55,12.746,2.385,16.388C45.726,313.758,41.53,306.966,44.718,302.065Z" transform="translate(-33.938 -208.82)" fill="#d1f4ff"/>
    <path id="Trazado_28" data-name="Trazado 28" d="M397.919,437.476c-.937-.13-1.873-.269-2.782-.411a1.369,1.369,0,0,0-1.587,1.045,1.29,1.29,0,0,0,1.128,1.471c.926.145,1.879.286,2.833.419a1.484,1.484,0,0,0,.206.014,1.349,1.349,0,0,0,1.36-1.087A1.294,1.294,0,0,0,397.919,437.476Z" transform="translate(-321.281 -328.242)"/>
    <path id="Trazado_29" data-name="Trazado 29" d="M92.8,101.046a101.735,101.735,0,0,1-29.695-9.007c-10.4-4.961-17.966-10.748-21.292-16.3-2.171-3.621-2.48-7.067-.919-10.244A8.519,8.519,0,0,1,46.3,61.219a14.5,14.5,0,0,1,3.366-.623c.121.159.241.318.358.48a5.49,5.49,0,0,0,4.532,2.414,6.11,6.11,0,0,0,1.248-.132,6.845,6.845,0,0,0,5.3-5.351c.417-2.652-1.159-5.117-4.327-6.765-.351-.182-.7-.355-1.059-.524a11.4,11.4,0,0,0-4.871-6.9c-3.514-2.308-8.338-2.9-14.338-1.748-8.115,1.553-16.124,5.962-24.483,13.48a1.211,1.211,0,0,0-.029,1.8,1.455,1.455,0,0,0,1.947.027c7.972-7.169,15.535-11.36,23.122-12.812,5.2-1,9.289-.555,12.153,1.307a8.914,8.914,0,0,1,3.1,3.462q-.775-.262-1.554-.478a1.4,1.4,0,0,0-1.714.857,1.264,1.264,0,0,0,.925,1.588,28.137,28.137,0,0,1,5.454,2.163c2.181,1.134,3.2,2.577,2.949,4.171a4.234,4.234,0,0,1-3.182,3.23,2.672,2.672,0,0,1-2.884-1.208,24.011,24.011,0,0,0-10.045-8.086,20.348,20.348,0,0,0-2.839-.951,26.59,26.59,0,0,1,4.985-.224,1.341,1.341,0,0,0,1.451-1.2,1.316,1.316,0,0,0-1.3-1.345c-7.526-.389-15.563,2.255-23.24,7.642a55.512,55.512,0,0,0-9.06,7.925,36.811,36.811,0,0,0-6.11,2.077c1.108-1.334,2.454-2.864,4.019-4.48a1.212,1.212,0,0,0-.1-1.8,1.454,1.454,0,0,0-1.944.1A71.726,71.726,0,0,0,.205,68.9a1.2,1.2,0,0,0,.053,1.415,1.448,1.448,0,0,0,1.921.293,34.2,34.2,0,0,1,12.382-5.061c2.678-.5,6.418-.713,8.143.321,1.146.687,1.584,1.669,1.145,2.563-.592,1.205-2.647,2.033-5.9,1.163a14.852,14.852,0,0,0-8.869.015,9.394,9.394,0,0,0-5.2,4.369A9.942,9.942,0,0,0,6.026,86.119a13.507,13.507,0,0,0-1.45,3.5c-.945,3.615-.172,7.6,2.235,11.511a23.767,23.767,0,0,0,3.91,4.824,1.455,1.455,0,0,0,1.947-.029,1.211,1.211,0,0,0-.031-1.8c-.073-.066-7.281-6.641-5.384-13.9A10.665,10.665,0,0,1,14,82.757a19.692,19.692,0,0,1,10.381-.895c4.34.75,7.537,2.769,7.278,4.6a1.324,1.324,0,0,1-.573,1,2.337,2.337,0,0,1-1.7.182c-.04-.009-.081-.015-.121-.021a7.2,7.2,0,0,0-1.87-1.632,1.445,1.445,0,0,0-1.909.354,1.22,1.22,0,0,0,.382,1.77,3.12,3.12,0,0,1,1.789,3.2,3.382,3.382,0,0,1-2.222,2.655,2.4,2.4,0,0,1-2.456-.727c-3.05-2.934-6.815-4.212-9.824-3.335a4.912,4.912,0,0,0-3.657,3.935A1.292,1.292,0,0,0,10.635,95.3a1.368,1.368,0,0,0,1.576-1.06,2.328,2.328,0,0,1,1.763-1.9c2.4-.7,5.28,1,7.015,2.671a5.445,5.445,0,0,0,3.788,1.608,5.2,5.2,0,0,0,1.506-.226,5.945,5.945,0,0,0,3.363-2.683,40.1,40.1,0,0,0,6.908,5.314c5.426,3.4,15.138,8.1,30.6,11.2a1.484,1.484,0,0,0,.293.029,1.358,1.358,0,0,0,1.344-1.006,1.28,1.28,0,0,0-1.055-1.517c-14.906-2.99-24.248-7.474-29.46-10.709-5.6-3.476-7.756-6.289-7.8-6.346-.015-.02-.032-.039-.048-.059q-.009-.181-.032-.361a4.711,4.711,0,0,0,2.25-.7,3.814,3.814,0,0,0,1.74-2.77c.253-1.785-.72-3.533-2.741-4.922a17.484,17.484,0,0,0-6.762-2.518c-6.084-1.05-13.118.154-17.26,4.631a7.527,7.527,0,0,1-1.286-8.847c.858-1.57,3.633-5.012,10.85-3.085,4.833,1.29,8.088-.355,9.171-2.558,1.015-2.066.149-4.382-2.155-5.765-1.621-.972-4.293-1.338-7.476-1.06a55.028,55.028,0,0,1,6.321-5.181,45.422,45.422,0,0,1,6.973-4.031l.024-.007a15.141,15.141,0,0,1,11.095.45,20.7,20.7,0,0,1,6.479,4.366c-2.782.478-7.13,1.905-9.229,6.176-1.943,3.954-1.6,8.174,1.018,12.541,7.7,12.838,34.13,24.319,53.039,26.593a1.481,1.481,0,0,0,.179.011,1.346,1.346,0,0,0,1.364-1.112A1.3,1.3,0,0,0,92.8,101.046Z" transform="translate(0)"/>
    <path id="Trazado_30" data-name="Trazado 30" d="M173.244,229.2a1.259,1.259,0,0,0-.881,1.609c.193.548.413,1.106.655,1.661a1.382,1.382,0,0,0,1.277.8,1.469,1.469,0,0,0,.515-.093,1.247,1.247,0,0,0,.762-1.661c-.218-.5-.417-1-.591-1.5A1.4,1.4,0,0,0,173.244,229.2Z" transform="translate(-140.663 -155.708)"/>
    <path id="Trazado_31" data-name="Trazado 31" d="M174.8,127.188a1.219,1.219,0,0,0,.368-1.769,1.445,1.445,0,0,0-1.912-.344,15.682,15.682,0,0,0-6.811,13.978,1.337,1.337,0,0,0,1.373,1.2l.086,0a1.314,1.314,0,0,0,1.29-1.352A13.156,13.156,0,0,1,174.8,127.188Z" transform="translate(-135.856 -69.174)"/>
    <path id="Trazado_32" data-name="Trazado 32" d="M152.4,420.686c-.843-.364-1.675-.756-2.472-1.167a1.436,1.436,0,0,0-1.872.5,1.229,1.229,0,0,0,.535,1.735c.855.44,1.745.861,2.648,1.25a1.463,1.463,0,0,0,.58.119,1.389,1.389,0,0,0,1.249-.738A1.238,1.238,0,0,0,152.4,420.686Z" transform="translate(-120.731 -313.564)"/>
    <path id="Trazado_33" data-name="Trazado 33" d="M91.9,366.761a25.148,25.148,0,0,1-6.641-6.754,1.433,1.433,0,0,0-1.858-.534,1.232,1.232,0,0,0-.579,1.723,27.12,27.12,0,0,0,7.373,7.57,1.44,1.44,0,0,0,.851.274,1.417,1.417,0,0,0,1.083-.487A1.214,1.214,0,0,0,91.9,366.761Z" transform="translate(-67.488 -263.747)"/>
  </g>
</svg>
