<svg xmlns="http://www.w3.org/2000/svg" width="94" height="73" viewBox="0 0 94 73">
  <path id="comment" d="M83.872,0H10.128C4.543,0,0,3.528,0,7.866V49.818c0,4.337,4.543,7.865,10.128,7.865H33.5L41.239,69.7a6.683,6.683,0,0,0,11.522,0L60.5,57.683H83.872C89.457,57.683,94,54.155,94,49.818V7.866C94,3.528,89.457,0,83.872,0Zm4.62,49.818c0,1.978-2.073,3.588-4.62,3.588H58.8a2.918,2.918,0,0,0-2.463,1.182l-8.5,13.2a2.788,2.788,0,0,1-.835.894,2.788,2.788,0,0,1-.835-.894l-8.5-13.2A2.917,2.917,0,0,0,35.2,53.406H10.129c-2.548,0-4.621-1.61-4.621-3.588V7.866c0-1.979,2.073-3.588,4.621-3.588H83.872c2.547,0,4.62,1.61,4.62,3.588Zm0,0"/>
</svg>
