<svg xmlns="http://www.w3.org/2000/svg" width="94" height="73" viewBox="0 0 94 73">
  <path id="home" d="M91.975,31.751l-.007-.006L53.62,1.968a10.5,10.5,0,0,0-12.24,0L3.052,31.73l-.039.031a5.725,5.725,0,0,0,.016,9.49,9.916,9.916,0,0,0,5.742,1.96c.089.007.178.01.268.01h1.528V65.134C10.567,69.471,15.111,73,20.7,73h15c1.521,0,2.754-.958,2.754-2.139V53.68c0-1.979,2.074-3.588,4.622-3.588h8.849c2.548,0,4.621,1.61,4.621,3.588V70.861C56.546,72.041,57.779,73,59.3,73h15c5.586,0,10.13-3.528,10.13-7.865V43.221H85.85a9.987,9.987,0,0,0,6.12-1.969,5.728,5.728,0,0,0,.005-9.5Zm-3.9,6.476a3.632,3.632,0,0,1-2.225.716H81.679c-1.521,0-2.754.957-2.754,2.139V65.134c0,1.978-2.073,3.588-4.621,3.588H62.054V53.68c0-4.337-4.544-7.866-10.13-7.866H43.076c-5.586,0-10.13,3.529-10.13,7.866V68.722H20.7c-2.548,0-4.621-1.61-4.621-3.588V41.082c0-1.181-1.233-2.139-2.754-2.139h-4.1l-.129,0a3.617,3.617,0,0,1-2.167-.712,2.082,2.082,0,0,1,0-3.455h0l0,0L45.276,4.992a3.814,3.814,0,0,1,4.448,0l38.338,29.77.018.013a2.083,2.083,0,0,1-.006,3.451Zm0,0" transform="translate(-0.5 0.001)"/>
</svg>
