<svg xmlns="http://www.w3.org/2000/svg" width="94" height="73" viewBox="0 0 94 73">
  <g id="home-sea" transform="translate(0.002 0.001)">
    <path id="Trazado_60" data-name="Trazado 60" d="M93.8,118.127c0,2.04,1.227,3.637,2.793,3.637s2.794-1.6,2.794-3.637-1.227-3.638-2.794-3.638-2.793,1.6-2.793,3.638Zm0,0" transform="translate(-76.584 -92.454)"/>
    <path id="Trazado_61" data-name="Trazado 61" d="M185.809,146.052a1.344,1.344,0,0,0,1.946-.026,11.822,11.822,0,0,0,2.207-13.068,1.346,1.346,0,0,0-1.861-.6,1.478,1.478,0,0,0-.572,1.951,8.853,8.853,0,0,1-1.747,9.7,1.493,1.493,0,0,0,.026,2.04Zm0,0" transform="translate(-151.358 -106.748)"/>
    <path id="Trazado_62" data-name="Trazado 62" d="M216.9,154.5a1.342,1.342,0,0,0,.986-.436A11.822,11.822,0,0,0,220.09,141a1.346,1.346,0,0,0-1.861-.6,1.48,1.48,0,0,0-.572,1.951,8.851,8.851,0,0,1-1.746,9.7,1.494,1.494,0,0,0,.025,2.041,1.339,1.339,0,0,0,.96.41Zm0,0" transform="translate(-175.954 -113.243)"/>
    <path id="Trazado_63" data-name="Trazado 63" d="M247.026,162.558a1.342,1.342,0,0,0,.986-.436,11.823,11.823,0,0,0,2.207-13.069,1.342,1.342,0,0,0-1.852-.6,1.481,1.481,0,0,0-.583,1.944,8.8,8.8,0,0,1-1.743,9.71,1.493,1.493,0,0,0,.025,2.04,1.338,1.338,0,0,0,.96.41Zm0,0" transform="translate(-200.552 -119.748)"/>
    <path id="Trazado_64" data-name="Trazado 64" d="M16.533,51.318A38.266,38.266,0,0,1,8.416,40.859c3.412,1.824,8.989,3.82,17.464,4.264l.07,0a1.446,1.446,0,0,0,.068-2.884c-13.349-.7-18.9-5.458-19.874-6.4-.283-.745-.551-1.5-.8-2.275A56.837,56.837,0,0,1,2.752,16.575,5.217,5.217,0,0,1,4.71,12.414a4.748,4.748,0,0,1,4.384-.853l23.567,7.151a1.364,1.364,0,0,0,1.683-.915c2.045-6.2,7.4-13.811,21.294-14.907A1.318,1.318,0,0,1,56.722,5a26.618,26.618,0,0,0-3.379,6.533,1.465,1.465,0,0,0,.8,1.862,1.357,1.357,0,0,0,1.776-.834,23.7,23.7,0,0,1,3-5.816,4.328,4.328,0,0,0,.334-4.555A3.914,3.914,0,0,0,55.431.012a31.447,31.447,0,0,0-13.012,3.7A22.555,22.555,0,0,0,32.2,15.568L9.859,8.788a7.376,7.376,0,0,0-6.812,1.325A8.13,8.13,0,0,0,0,16.6,59.836,59.836,0,0,0,2.734,34.484a42.849,42.849,0,0,0,12,19.02,1.345,1.345,0,0,0,1.941-.15,1.492,1.492,0,0,0-.143-2.035Zm0,0" transform="translate(0 0)"/>
    <path id="Trazado_65" data-name="Trazado 65" d="M320.756,93.041a1.354,1.354,0,0,0-1.252-.7c-.316.016-7.5.483-12.575,8.3l-5.422-2.446c.348-2.384.653-7.091-2.057-8.353-2.787-1.3-5.716,2.375-7.043,4.358L280.8,90a40.116,40.116,0,0,1,.6-4.316,1.443,1.443,0,0,0-1.072-1.7,1.38,1.38,0,0,0-1.624,1.125,38.868,38.868,0,0,0-.723,5.861,1.442,1.442,0,0,0,.927,1.4l13.606,4.915a1.345,1.345,0,0,0,1.62-.607c1.648-2.805,3.649-4.461,4.193-4.207.718.335.856,3.449.28,6.285a1.46,1.46,0,0,0,.8,1.628l7.5,3.383a1.344,1.344,0,0,0,1.723-.58,15.931,15.931,0,0,1,8.309-7.33,54.534,54.534,0,0,0-4.675,15.661,1.448,1.448,0,0,0,1.153,1.62A1.4,1.4,0,0,0,315,111.909a52.208,52.208,0,0,1,5.749-17.379A1.5,1.5,0,0,0,320.756,93.041Zm0,0" transform="translate(-226.95 -67.796)"/>
    <path id="Trazado_66" data-name="Trazado 66" d="M170.619,235.359a1.412,1.412,0,0,0-1.358-1.461h-.018a1.41,1.41,0,0,0-1.376,1.425,45.628,45.628,0,0,0,.765,9,14.607,14.607,0,0,1-5.319-11.466,1.461,1.461,0,0,0-.859-1.419,1.349,1.349,0,0,0-1.593.438,47.925,47.925,0,0,1-20.245,14.29c0-.011,0-.021,0-.032a62.9,62.9,0,0,1-.457-13.956,1.43,1.43,0,0,0-1.2-1.6,1.391,1.391,0,0,0-1.53,1.261,66.208,66.208,0,0,0,.455,14.63c.457,4.161.889,8.091-.137,9.3a1.471,1.471,0,0,1-1.247.436h-.018c-3.966,0-8.024-3.166-12.063-9.409a81.318,81.318,0,0,1-7.393-15.424,1.358,1.358,0,0,0-1.776-.835,1.466,1.466,0,0,0-.8,1.862,85.718,85.718,0,0,0,7.334,15.461,45.87,45.87,0,0,1-11.34-3.416,43.147,43.147,0,0,1-6.729-3.712,1.338,1.338,0,0,0-1.9.429,1.486,1.486,0,0,0,.408,2,45.89,45.89,0,0,0,7.153,3.946,47.33,47.33,0,0,0,14.6,3.945c4.028,5.34,8.225,8.043,12.505,8.043h.024a4.128,4.128,0,0,0,3.3-1.4c1.48-1.745,1.479-4.756,1.124-8.584a49.982,49.982,0,0,0,19.934-12.932,19.006,19.006,0,0,0,.688,2.66,16.649,16.649,0,0,0,8.67,9.823,1.418,1.418,0,0,0,1.876-1.794,38.131,38.131,0,0,1-1.47-11.492Zm0,0" transform="translate(-82.937 -186.082)"/>
  </g>
</svg>
