<svg xmlns="http://www.w3.org/2000/svg" width="94" height="73" viewBox="0 0 94 73">
  <g id="home-sea-active" transform="translate(0.002 0.001)">
    <path id="Trazado_67" data-name="Trazado 67" d="M39.093,23.321,15.517,16.168a6.4,6.4,0,0,0-8.1,6.414c.086,12.028,3.566,33.354,25.6,43.111,31.613,14,52.052-13,52.052-13s-.545,10,8.857,14.571a41.9,41.9,0,0,1-1.172-17.34,53.265,53.265,0,0,1,5.941-17.943s-7.35.384-12.119,8.669l-7.5-3.384S80.455,30.5,78,29.357s-5.925,4.77-5.925,4.77L58.467,29.21s.266-10.252,5.408-17.35a2.754,2.754,0,0,0-2.283-4.419c-7.318.577-18.435,3.563-22.5,15.88Zm0,0" transform="translate(-6.054 -6.003)" fill="#cac0c9"/>
    <path id="Trazado_68" data-name="Trazado 68" d="M430.341,242.7c-.02.48-.308,10.094,8.858,14.55a35.007,35.007,0,0,1-1.388-7.568c-4.695-2.072-6.7-4.7-7.47-6.982Zm0,0" transform="translate(-351.331 -195.987)" fill="#bbb0ba"/>
    <path id="Trazado_69" data-name="Trazado 69" d="M85.031,110.206a2.27,2.27,0,0,0-3.746-1.029c-7.286,6.954-24.662,19.366-48.271,8.911C13.132,109.284,8.357,91.063,7.551,78.75a7,7,0,0,0-.137,1.423c.086,12.028,3.566,33.354,25.6,43.111C64.343,137.158,84.7,110.766,85.06,110.292c-.01-.029-.019-.057-.029-.086Zm0,0" transform="translate(-6.054 -63.594)" fill="#bbb0ba"/>
    <path id="Trazado_70" data-name="Trazado 70" d="M9.547,120.664c1.356,12.129,6.822,28.325,25.208,36.467,19.5,8.633,34.741,1.674,43.565-4.929-58.788-4.173-68.773-31.538-68.773-31.538Zm0,0" transform="translate(-7.796 -97.44)" fill="#ffe9c8"/>
    <path id="Trazado_71" data-name="Trazado 71" d="M34.755,151.934C20.2,145.489,13.743,134,11.01,123.469a17.354,17.354,0,0,1-1.463-2.805c1.356,12.129,6.822,28.325,25.208,36.467,19.5,8.633,34.741,1.674,43.565-4.929q-3.79-.268-7.309-.663c-8.963,4.489-21.371,6.987-36.255.4Zm0,0" transform="translate(-7.796 -97.44)" fill="#ffdca7"/>
    <path id="Trazado_72" data-name="Trazado 72" d="M178.609,237.953c2.744,7.547,10.447,25.795,20.77,25.77,6.605-.015.856-13.067,2.293-25.646" transform="translate(-145.819 -192.155)" fill="#cac0c9"/>
    <path id="Trazado_73" data-name="Trazado 73" d="M217.147,283.288c.2,5.259-.123,8.783-3.75,8.791-5.659.014-11.4-5.05-15.889-10.872,3.846,8.089,9.9,17.462,17.3,17.445,4.774-.011,3.095-6.833,2.339-15.364Zm0,0" transform="translate(-161.248 -227.084)" fill="#bbb0ba"/>
    <path id="Trazado_74" data-name="Trazado 74" d="M93.8,118.127c0,2.04,1.227,3.637,2.793,3.637s2.794-1.6,2.794-3.637-1.227-3.638-2.794-3.638-2.793,1.6-2.793,3.638Zm0,0" transform="translate(-76.584 -92.454)"/>
    <path id="Trazado_75" data-name="Trazado 75" d="M185.809,146.052a1.344,1.344,0,0,0,1.946-.026,11.822,11.822,0,0,0,2.207-13.068,1.346,1.346,0,0,0-1.861-.6,1.478,1.478,0,0,0-.572,1.951,8.853,8.853,0,0,1-1.747,9.7,1.493,1.493,0,0,0,.026,2.04Zm0,0" transform="translate(-151.358 -106.748)"/>
    <path id="Trazado_76" data-name="Trazado 76" d="M216.9,154.5a1.342,1.342,0,0,0,.986-.436A11.822,11.822,0,0,0,220.09,141a1.346,1.346,0,0,0-1.861-.6,1.48,1.48,0,0,0-.572,1.951,8.851,8.851,0,0,1-1.746,9.7,1.494,1.494,0,0,0,.025,2.041,1.339,1.339,0,0,0,.96.41Zm0,0" transform="translate(-175.954 -113.243)"/>
    <path id="Trazado_77" data-name="Trazado 77" d="M247.026,162.558a1.342,1.342,0,0,0,.986-.436,11.823,11.823,0,0,0,2.207-13.069,1.342,1.342,0,0,0-1.852-.6,1.481,1.481,0,0,0-.583,1.944,8.8,8.8,0,0,1-1.743,9.71,1.493,1.493,0,0,0,.025,2.04,1.338,1.338,0,0,0,.96.41Zm0,0" transform="translate(-200.552 -119.748)"/>
    <path id="Trazado_78" data-name="Trazado 78" d="M16.533,51.318A38.266,38.266,0,0,1,8.416,40.859c3.412,1.824,8.989,3.82,17.464,4.264l.07,0a1.446,1.446,0,0,0,.068-2.884c-13.349-.7-18.9-5.458-19.874-6.4-.283-.745-.551-1.5-.8-2.275A56.837,56.837,0,0,1,2.752,16.575,5.217,5.217,0,0,1,4.71,12.414a4.748,4.748,0,0,1,4.384-.853l23.567,7.151a1.364,1.364,0,0,0,1.683-.915c2.045-6.2,7.4-13.811,21.294-14.907A1.318,1.318,0,0,1,56.722,5a26.618,26.618,0,0,0-3.379,6.533,1.465,1.465,0,0,0,.8,1.862,1.357,1.357,0,0,0,1.776-.834,23.7,23.7,0,0,1,3-5.816,4.328,4.328,0,0,0,.334-4.555A3.914,3.914,0,0,0,55.431.012a31.447,31.447,0,0,0-13.012,3.7A22.555,22.555,0,0,0,32.2,15.568L9.859,8.788a7.376,7.376,0,0,0-6.812,1.325A8.13,8.13,0,0,0,0,16.6,59.836,59.836,0,0,0,2.734,34.484a42.849,42.849,0,0,0,12,19.02,1.345,1.345,0,0,0,1.941-.15,1.492,1.492,0,0,0-.143-2.035Zm0,0" transform="translate(0 0)"/>
    <path id="Trazado_79" data-name="Trazado 79" d="M320.756,93.041a1.354,1.354,0,0,0-1.252-.7c-.316.016-7.5.483-12.575,8.3l-5.422-2.446c.348-2.384.653-7.091-2.057-8.353-2.787-1.3-5.716,2.375-7.043,4.358L280.8,90a40.116,40.116,0,0,1,.6-4.316,1.443,1.443,0,0,0-1.072-1.7,1.38,1.38,0,0,0-1.624,1.125,38.868,38.868,0,0,0-.723,5.861,1.442,1.442,0,0,0,.927,1.4l13.606,4.915a1.345,1.345,0,0,0,1.62-.607c1.648-2.805,3.649-4.461,4.193-4.207.718.335.856,3.449.28,6.285a1.46,1.46,0,0,0,.8,1.628l7.5,3.383a1.344,1.344,0,0,0,1.723-.58,15.931,15.931,0,0,1,8.309-7.33,54.534,54.534,0,0,0-4.675,15.661,1.448,1.448,0,0,0,1.153,1.62A1.4,1.4,0,0,0,315,111.909a52.208,52.208,0,0,1,5.749-17.379A1.5,1.5,0,0,0,320.756,93.041Zm0,0" transform="translate(-226.95 -67.796)"/>
    <path id="Trazado_80" data-name="Trazado 80" d="M170.619,235.359a1.412,1.412,0,0,0-1.358-1.461h-.018a1.41,1.41,0,0,0-1.376,1.425,45.628,45.628,0,0,0,.765,9,14.607,14.607,0,0,1-5.319-11.466,1.461,1.461,0,0,0-.859-1.419,1.349,1.349,0,0,0-1.593.438,47.925,47.925,0,0,1-20.245,14.29c0-.011,0-.021,0-.032a62.9,62.9,0,0,1-.457-13.956,1.43,1.43,0,0,0-1.2-1.6,1.391,1.391,0,0,0-1.53,1.261,66.208,66.208,0,0,0,.455,14.63c.457,4.161.889,8.091-.137,9.3a1.471,1.471,0,0,1-1.247.436h-.018c-3.966,0-8.024-3.166-12.063-9.409a81.318,81.318,0,0,1-7.393-15.424,1.358,1.358,0,0,0-1.776-.835,1.466,1.466,0,0,0-.8,1.862,85.718,85.718,0,0,0,7.334,15.461,45.87,45.87,0,0,1-11.34-3.416,43.147,43.147,0,0,1-6.729-3.712,1.338,1.338,0,0,0-1.9.429,1.486,1.486,0,0,0,.408,2,45.89,45.89,0,0,0,7.153,3.946,47.33,47.33,0,0,0,14.6,3.945c4.028,5.34,8.225,8.043,12.505,8.043h.024a4.128,4.128,0,0,0,3.3-1.4c1.48-1.745,1.479-4.756,1.124-8.584a49.982,49.982,0,0,0,19.934-12.932,19.006,19.006,0,0,0,.688,2.66,16.649,16.649,0,0,0,8.67,9.823,1.418,1.418,0,0,0,1.876-1.794,38.131,38.131,0,0,1-1.47-11.492Zm0,0" transform="translate(-82.937 -186.082)"/>
  </g>
</svg>
