<svg xmlns="http://www.w3.org/2000/svg" width="94" height="73" viewBox="0 0 94 73">
  <g id="like-sea-active" transform="translate(0 -46.741)">
    <path id="Trazado_40" data-name="Trazado 40" d="M300.277,103.625l-8.009,5.525L289.233,130.2,293,151.14l7.28,5.641a44.538,44.538,0,0,0,8.214-1.98V105.6A44.552,44.552,0,0,0,300.277,103.625Z" transform="translate(-236.132 -46.962)" fill="#efedee"/>
    <path id="Trazado_41" data-name="Trazado 41" d="M332.556,380.242c-1.555.223-3.136.373-4.734.451l3.959,3.068a44.538,44.538,0,0,0,8.214-1.98v-3.22A47.859,47.859,0,0,1,332.556,380.242Z" transform="translate(-267.636 -273.942)" fill="#d2d2d2"/>
    <path id="Trazado_42" data-name="Trazado 42" d="M384.082,146.173l-.727-1.212,1.345-1.406a23.224,23.224,0,0,0,.341-3.982c0-11.789-8.595-20.561-20.264-24.6a49.137,49.137,0,0,0,0,49.2c9.371-3.242,16.758-9.539,19.3-18Z" transform="translate(-292.418 -56.332)" fill="#fa9f6a"/>
    <path id="Trazado_43" data-name="Trazado 43" d="M17.512,205.238C11.7,208.7,7.5,206,7.5,193.4s4.2-15.3,10.012-11.839Z" transform="translate(-6.123 -110.158)" fill="#3a484a"/>
    <path id="Trazado_44" data-name="Trazado 44" d="M56.9,194.333V205.6a31.614,31.614,0,0,1-6.992,6.207c-1.718-1.858-2.726-5.658-2.726-11.839s1.009-9.98,2.726-11.839A31.606,31.606,0,0,1,56.9,194.333Z" transform="translate(-38.519 -116.724)" fill="#e0712f"/>
    <g id="Grupo_19" data-name="Grupo 19" transform="translate(34.269 48.049)">
      <path id="Trazado_45" data-name="Trazado 45" d="M189.686,66.747c-8.764-10.477,3.105-15.068,15.2-11.083Z" transform="translate(-186.659 -54.24)" fill="#3a484a"/>
      <path id="Trazado_46" data-name="Trazado 46" d="M189.686,386.052c-8.764,10.477,3.105,15.068,15.2,11.083Z" transform="translate(-186.659 -328.176)" fill="#3a484a"/>
    </g>
    <path id="Trazado_47" data-name="Trazado 47" d="M230,69.6l-26.849,3.893s3.419-8.57,15.2-11.083A28.907,28.907,0,0,1,230,69.6Z" transform="translate(-165.85 -12.933)" fill="#e0712f"/>
    <path id="Trazado_48" data-name="Trazado 48" d="M230,389.946l-26.849-3.893s3.419,8.57,15.2,11.083A28.908,28.908,0,0,0,230,389.946Z" transform="translate(-165.85 -280.127)" fill="#fa9f6a"/>
    <path id="Trazado_49" data-name="Trazado 49" d="M158.425,109.042h0v0l-5.806,5.782-4.25,18.606,4.25,15.077,5.807,5.9a46.478,46.478,0,0,0,11.228,3.571V105.471A46.468,46.468,0,0,0,158.425,109.042Z" transform="translate(-121.127 -48.486)" fill="#efedee"/>
    <path id="Trazado_50" data-name="Trazado 50" d="M187.588,355.317h0a49.41,49.41,0,0,1-11.936-3.8,47.531,47.531,0,0,1-5.058-2.736l.169.6,5.807,5.9h0q1.361.635,2.749,1.173a46.818,46.818,0,0,0,8.479,2.4v-3.5Z" transform="translate(-139.272 -249.359)" fill="#d2d2d2"/>
    <g id="Grupo_20" data-name="Grupo 20" transform="translate(16.014 56.179)">
      <path id="Trazado_51" data-name="Trazado 51" d="M239.173,127.911a55.065,55.065,0,0,0,6.582,26.578,48.383,48.383,0,0,1-15.619-.322h0a46.266,46.266,0,0,1-7.684-26.256,46.27,46.27,0,0,1,7.684-26.256h0a48.383,48.383,0,0,1,15.619-.322A55.087,55.087,0,0,0,239.173,127.911Z" transform="translate(-197.623 -100.849)" fill="#fa9f6a"/>
      <path id="Trazado_52" data-name="Trazado 52" d="M103.854,148.631a56.131,56.131,0,0,0,4.652,22.685,44.749,44.749,0,0,1-20.329-19.042,7.434,7.434,0,0,1,0-7.285,44.74,44.74,0,0,1,20.329-19.042A56.159,56.159,0,0,0,103.854,148.631Z" transform="translate(-87.223 -121.568)" fill="#fa9f6a"/>
    </g>
    <g id="Grupo_21" data-name="Grupo 21" transform="translate(16.067 84.11)">
      <path id="Trazado_53" data-name="Trazado 53" d="M388.323,319.993a35.213,35.213,0,0,0,10.308-5.954l.041-.035a27.44,27.44,0,0,0,3.76-3.881l.033-.043a23.577,23.577,0,0,0,3.4-5.87c-3.835,5.694-10.031,10-17.378,12.545q-1.4.485-2.851.88.73,1.421,1.559,2.764Q387.764,320.2,388.323,319.993Z" transform="translate(-330.906 -296.671)" fill="#e0712f"/>
      <path id="Trazado_54" data-name="Trazado 54" d="M253.33,384.066q-1.107-.2-2.209-.458a39.012,39.012,0,0,0,2.422,4,48.435,48.435,0,0,0,13.719.556q.956-.1,1.9-.234-.872-1.577-1.633-3.235A51.544,51.544,0,0,1,253.33,384.066Z" transform="translate(-221.083 -362.219)" fill="#e0712f"/>
      <path id="Trazado_55" data-name="Trazado 55" d="M108.742,282.8q-.884-2-1.6-4.091a47.356,47.356,0,0,1-19.625-17.725c.01.085.023.171.037.256a7.485,7.485,0,0,0,.864,2.517,47.464,47.464,0,0,0,4.781,7.012A44.221,44.221,0,0,0,108.742,282.8Z" transform="translate(-87.512 -260.981)" fill="#e0712f"/>
    </g>
    <path id="Trazado_56" data-name="Trazado 56" d="M430.313,247.067a5.362,5.362,0,0,0-4.206-.5A5.057,5.057,0,0,0,422.9,249.2a1.283,1.283,0,0,0,.688,1.731,1.416,1.416,0,0,0,1.821-.654,2.344,2.344,0,0,1,1.494-1.208,2.483,2.483,0,0,1,1.949.217,1.42,1.42,0,0,0,1.9-.416A1.271,1.271,0,0,0,430.313,247.067Z" transform="translate(-345.16 -164.79)"/>
    <path id="Trazado_57" data-name="Trazado 57" d="M94,83.241A24.246,24.246,0,0,0,87.931,67.2a34.892,34.892,0,0,0-15.1-9.791,45.871,45.871,0,0,0-8.007-1.97,30.32,30.32,0,0,0-11.88-7.206,28.825,28.825,0,0,0-8.885-1.5c-5.211,0-9.05,1.672-10.531,4.587-.894,1.761-1.25,4.66,1.7,8.768A46.091,46.091,0,0,0,18.056,75.267a29.391,29.391,0,0,0-5.935-4.973,9.757,9.757,0,0,0-4.9-1.587c-1.67,0-3.98.674-5.508,3.887C.577,74.987,0,78.569,0,83.241s.577,8.253,1.715,10.646c1.527,3.213,3.838,3.888,5.508,3.888a9.758,9.758,0,0,0,4.9-1.588,29.386,29.386,0,0,0,5.935-4.973,46.1,46.1,0,0,0,17.172,15.172c-2.948,4.108-2.593,7.006-1.7,8.767,1.481,2.915,5.319,4.587,10.531,4.588a28.823,28.823,0,0,0,8.884-1.5,30.32,30.32,0,0,0,11.879-7.206,45.871,45.871,0,0,0,8.009-1.971,34.889,34.889,0,0,0,15.1-9.79A24.634,24.634,0,0,0,94,83.241ZM50.447,55.349A49.263,49.263,0,0,0,40.789,57.7l-.086.03.045-.054a19.355,19.355,0,0,1,4.036-3.62,22.591,22.591,0,0,1,7.39-3.166l.243-.056a28.108,28.108,0,0,1,7.767,4.115,49.524,49.524,0,0,0-9.4.352ZM36.009,52.465c.989-1.946,4-3.108,8.051-3.108a23.34,23.34,0,0,1,3.455.267,22.063,22.063,0,0,0-10.406,8.426C35.652,55.828,35.27,53.919,36.009,52.465ZM7.222,95.159c-3.888,0-4.468-7.467-4.468-11.918s.581-11.918,4.468-11.918a5.517,5.517,0,0,1,2.168.528c-.009.015-.016.031-.025.045-1.7,2.927-1.966,6.541-2.058,9.815-.039,1.394-.032,2.878.05,4.3,0,.006,0,.013,0,.02.161,2.906.5,5.959,2.006,8.551.008.015.016.031.025.045A5.512,5.512,0,0,1,7.222,95.159Zm9.335-6.276a31.89,31.89,0,0,1-4.815,4.379l-.061-.11c-1.6-2.939-1.642-6.68-1.642-9.91a28.585,28.585,0,0,1,.861-7.925,9.833,9.833,0,0,1,.781-1.985l.061-.11A31.87,31.87,0,0,1,16.557,77.6a10.646,10.646,0,0,1-.806,1.385,8.663,8.663,0,0,0,0,8.512A11.254,11.254,0,0,1,16.557,88.882Zm2.86-.536q-.643-1.024-1.234-2.077a6.164,6.164,0,0,1,0-6.057q.59-1.055,1.237-2.08A43.686,43.686,0,0,1,34.681,63.4a58.309,58.309,0,0,0-3.414,19.842,60.566,60.566,0,0,0,.62,8.634,1.365,1.365,0,0,0,1.551,1.118,1.344,1.344,0,0,0,1.177-1.474,58.1,58.1,0,0,1-.594-8.278,55.04,55.04,0,0,1,4.35-21.724l.067-.031q1.789-.806,3.652-1.451,1.7-.588,3.437-1.042l.143-.037-.055.1a47.333,47.333,0,0,0-5.858,18.6,52.941,52.941,0,0,0-.295,5.584,50.192,50.192,0,0,0,3.915,19.7,41.092,41.092,0,0,0,2.239,4.493l.053.093-.141-.036A44.77,44.77,0,0,1,38.438,105l-.066-.03c-.092-.042-.214-.5-.26-.613a52.134,52.134,0,0,1-2.538-7.834,1.38,1.38,0,0,0-1.648-.985A1.308,1.308,0,0,0,32.888,97.1a55.579,55.579,0,0,0,1.787,5.967l.006.016A43.694,43.694,0,0,1,19.418,88.346Zm30.9,22.77a49.873,49.873,0,0,0,9.872.414,28.1,28.1,0,0,1-7.768,4.115,22.054,22.054,0,0,1-8.09-3.537,20.017,20.017,0,0,1-3.579-3.3l-.046-.056.078.027A48.877,48.877,0,0,0,50.314,111.116Zm-6.254,6.009c-4.052,0-7.061-1.162-8.05-3.108-.739-1.454-.357-3.363,1.1-5.585a22.064,22.064,0,0,0,10.406,8.426,23.348,23.348,0,0,1-3.453.268Zm20.854-8.751q-.924-1.752-1.7-3.572A54.936,54.936,0,0,1,58.94,83.241a57.139,57.139,0,0,1,1.4-12.657,1.31,1.31,0,0,0-1.055-1.555,1.406,1.406,0,0,0-1.637,1,59.625,59.625,0,0,0-1.466,13.209,57.113,57.113,0,0,0,5.8,25.41l.052.1a46.8,46.8,0,0,1-4.709.239,76.843,76.843,0,0,1-7.974-.683l-.068-.1a43.443,43.443,0,0,1-6.674-18.579,50.767,50.767,0,0,1-.4-6.372v-.018a47.6,47.6,0,0,1,3.869-19.075,41.422,41.422,0,0,1,2.778-5.235c.075-.119.474-.727.5-.761l.577-.1a46.815,46.815,0,0,1,12.107-.346c-.767,1.522-2.678,6.3-2.95,7.125l0,.012a1.309,1.309,0,0,0,.9,1.641,1.391,1.391,0,0,0,1.727-.855,50.122,50.122,0,0,1,2.664-6.5q.26-.525.533-1.043a43.447,43.447,0,0,1,5.434,1.264q-.185.327-.364.657a48.7,48.7,0,0,0-5.6,23.212,48.447,48.447,0,0,0,5.967,23.869A43.461,43.461,0,0,1,64.914,108.374Zm8.061-2.157c-.035-.061-.212-.369-.264-.462a44.382,44.382,0,0,1-5.279-16.984,51.874,51.874,0,0,1-.3-5.53,47.437,47.437,0,0,1,3.412-18.032,41.449,41.449,0,0,1,2.427-4.944C84.44,64.6,91.246,73.117,91.246,83.241a21.827,21.827,0,0,1-.37,4,13.849,13.849,0,0,1-3.357-.411,1.387,1.387,0,0,0-1.693.914,1.3,1.3,0,0,0,.962,1.608,16.312,16.312,0,0,0,3.431.491C87.921,97.008,81.844,102.867,72.975,106.217Z" transform="translate(0)"/>
  </g>
</svg>
