<svg xmlns="http://www.w3.org/2000/svg" width="94" height="73" viewBox="0 0 94 73">
  <path id="_002-like" data-name="002-like" d="M66.92.5A32.369,32.369,0,0,0,47,7.252,32.373,32.373,0,0,0,27.08.5C11.895.5,0,10.491,0,23.245,0,38.152,20.459,54.562,45.176,72.92a3.158,3.158,0,0,0,3.649,0C73.541,54.561,94,38.151,94,23.245,94,10.491,82.105.5,66.92.5ZM47,68.1C24.918,51.631,5.508,35.861,5.508,23.245c0-10.16,9.476-18.119,21.572-18.119A26.042,26.042,0,0,1,44.9,12.11a3.108,3.108,0,0,0,4.205,0A26.038,26.038,0,0,1,66.92,5.126c12.1,0,21.572,7.959,21.572,18.119C88.492,35.86,69.083,51.631,47,68.1Zm0,0" transform="translate(0 -0.5)"/>
</svg>
