<svg xmlns="http://www.w3.org/2000/svg" width="94" height="73" viewBox="0 0 94 73">
  <g id="like-sea" transform="translate(0 -46.741)">
    <g id="Grupo_23" data-name="Grupo 23" transform="translate(77.62 81.558)">
      <g id="Grupo_22" data-name="Grupo 22">
        <path id="Trazado_58" data-name="Trazado 58" d="M430.313,247.068a5.362,5.362,0,0,0-4.206-.5A5.057,5.057,0,0,0,422.9,249.2a1.283,1.283,0,0,0,.688,1.731,1.416,1.416,0,0,0,1.821-.654,2.344,2.344,0,0,1,1.494-1.208,2.483,2.483,0,0,1,1.948.217,1.42,1.42,0,0,0,1.9-.416A1.271,1.271,0,0,0,430.313,247.068Z" transform="translate(-422.779 -246.349)"/>
      </g>
    </g>
    <g id="Grupo_25" data-name="Grupo 25" transform="translate(0 46.741)">
      <g id="Grupo_24" data-name="Grupo 24">
        <path id="Trazado_59" data-name="Trazado 59" d="M87.931,67.2a34.892,34.892,0,0,0-15.1-9.791,45.87,45.87,0,0,0-8.007-1.97,30.32,30.32,0,0,0-11.88-7.206,28.825,28.825,0,0,0-8.885-1.5c-5.211,0-9.05,1.672-10.531,4.587-.894,1.761-1.25,4.66,1.7,8.768A46.09,46.09,0,0,0,18.056,75.267a29.391,29.391,0,0,0-5.935-4.973,9.757,9.757,0,0,0-4.9-1.587c-1.67,0-3.98.674-5.508,3.887C.577,74.987,0,78.569,0,83.241s.577,8.253,1.715,10.646c1.527,3.213,3.838,3.888,5.508,3.888a9.758,9.758,0,0,0,4.9-1.588,29.385,29.385,0,0,0,5.935-4.973,46.1,46.1,0,0,0,17.172,15.171c-2.948,4.108-2.593,7.006-1.7,8.767,1.481,2.915,5.319,4.587,10.531,4.588a28.823,28.823,0,0,0,8.884-1.5,30.32,30.32,0,0,0,11.879-7.206,45.872,45.872,0,0,0,8.009-1.971,34.889,34.889,0,0,0,15.1-9.79A24.634,24.634,0,0,0,94,83.241,24.246,24.246,0,0,0,87.931,67.2ZM52.418,50.837a28.108,28.108,0,0,1,7.767,4.115,49.523,49.523,0,0,0-9.4.352l-.335.046A49.263,49.263,0,0,0,40.789,57.7l-.086.03.045-.054a19.355,19.355,0,0,1,4.036-3.62,22.591,22.591,0,0,1,7.39-3.166ZM36.009,52.465c.989-1.946,4-3.108,8.051-3.108a23.34,23.34,0,0,1,3.455.267,22.063,22.063,0,0,0-10.406,8.426C35.652,55.828,35.27,53.919,36.009,52.465ZM7.357,86.015c0,.006,0,.013,0,.02.161,2.906.5,5.959,2.006,8.551.008.015.016.031.025.045a5.512,5.512,0,0,1-2.167.528c-3.888,0-4.468-7.467-4.468-11.918s.581-11.918,4.468-11.918a5.517,5.517,0,0,1,2.168.528c-.009.015-.016.031-.025.045-1.7,2.927-1.966,6.541-2.058,9.815C7.268,83.1,7.275,84.589,7.357,86.015ZM15.751,87.5a11.254,11.254,0,0,1,.806,1.385,31.891,31.891,0,0,1-4.815,4.379l-.061-.11c-1.6-2.939-1.642-6.68-1.642-9.91a28.585,28.585,0,0,1,.861-7.925,9.833,9.833,0,0,1,.781-1.985l.061-.11A31.87,31.87,0,0,1,16.557,77.6a10.645,10.645,0,0,1-.806,1.385A8.663,8.663,0,0,0,15.751,87.5Zm18.173,8.036A1.308,1.308,0,0,0,32.888,97.1a55.58,55.58,0,0,0,1.787,5.967l.006.016A43.693,43.693,0,0,1,19.418,88.346q-.643-1.024-1.234-2.077a6.164,6.164,0,0,1,0-6.057q.59-1.055,1.237-2.08A43.686,43.686,0,0,1,34.681,63.4a58.31,58.31,0,0,0-3.414,19.843,60.565,60.565,0,0,0,.62,8.634,1.365,1.365,0,0,0,1.551,1.118,1.344,1.344,0,0,0,1.177-1.474,58.1,58.1,0,0,1-.594-8.278,55.04,55.04,0,0,1,4.35-21.724l.067-.031q1.789-.806,3.652-1.451,1.7-.588,3.437-1.042l.143-.037-.055.1a47.333,47.333,0,0,0-5.858,18.6,52.942,52.942,0,0,0-.295,5.584,50.191,50.191,0,0,0,3.915,19.7,41.092,41.092,0,0,0,2.239,4.493l.053.093-.141-.036A44.769,44.769,0,0,1,38.438,105l-.066-.03c-.092-.042-.214-.5-.26-.613a52.133,52.133,0,0,1-2.538-7.834A1.38,1.38,0,0,0,33.924,95.533Zm10.137,21.592h0c-4.052,0-7.061-1.162-8.05-3.108-.739-1.454-.357-3.363,1.1-5.585a22.064,22.064,0,0,0,10.406,8.426A23.348,23.348,0,0,1,44.061,117.124Zm8.357-1.479a22.054,22.054,0,0,1-8.09-3.537,20.017,20.017,0,0,1-3.579-3.3l-.046-.056.078.027a48.878,48.878,0,0,0,9.532,2.34,49.873,49.873,0,0,0,9.872.414A28.1,28.1,0,0,1,52.418,115.645Zm12.5-7.271q-.924-1.752-1.7-3.572A54.935,54.935,0,0,1,58.94,83.241a57.138,57.138,0,0,1,1.4-12.657,1.31,1.31,0,0,0-1.055-1.555,1.406,1.406,0,0,0-1.637,1,59.625,59.625,0,0,0-1.466,13.209,57.112,57.112,0,0,0,5.8,25.41l.052.1a46.8,46.8,0,0,1-4.709.239,76.841,76.841,0,0,1-7.974-.683l-.068-.1a43.442,43.442,0,0,1-6.674-18.579,50.766,50.766,0,0,1-.4-6.372v-.018a47.6,47.6,0,0,1,3.869-19.075,41.422,41.422,0,0,1,2.778-5.235c.075-.119.474-.727.5-.761l.577-.1a46.816,46.816,0,0,1,12.107-.346c-.767,1.522-2.678,6.3-2.95,7.125l0,.012a1.309,1.309,0,0,0,.9,1.641,1.391,1.391,0,0,0,1.727-.855,50.121,50.121,0,0,1,2.664-6.5q.26-.525.533-1.043a43.448,43.448,0,0,1,5.434,1.264q-.185.327-.364.657a48.7,48.7,0,0,0-5.6,23.212,48.446,48.446,0,0,0,5.967,23.869A43.521,43.521,0,0,1,64.914,108.374ZM86.789,89.351a16.311,16.311,0,0,0,3.431.491c-2.3,7.167-8.377,13.026-17.246,16.375-.035-.061-.212-.369-.264-.462a44.381,44.381,0,0,1-5.279-16.984,51.874,51.874,0,0,1-.3-5.53,47.437,47.437,0,0,1,3.412-18.032,41.446,41.446,0,0,1,2.427-4.944C84.44,64.6,91.246,73.117,91.246,83.241a21.828,21.828,0,0,1-.37,4,13.849,13.849,0,0,1-3.357-.411,1.387,1.387,0,0,0-1.693.914A1.3,1.3,0,0,0,86.789,89.351Z" transform="translate(0 -46.741)"/>
      </g>
    </g>
  </g>
</svg>
