<svg xmlns="http://www.w3.org/2000/svg" width="94" height="76" viewBox="0 0 94 76">
  <g id="send-sea" transform="translate(-2 -7)">
    <path id="Trazado_81" data-name="Trazado 81" d="M84.62,56.369v-8.04A58.711,58.711,0,0,0,82.977,33.31,55.391,55.391,0,0,0,78.09,22.718c-3.987-6.9-5.323-6.9-5.964-6.9-2.588,0-4.685,2.426-4.685,5.418v5.418A37.964,37.964,0,0,1,61.557,46.94l-2.072-4.793a39.044,39.044,0,0,1-2.977-15.49v-5.53a7.779,7.779,0,0,0-1.886-5.077,5.8,5.8,0,0,0-4.442-2.035,4.3,4.3,0,0,0-4.44,2.8c-3.323,7.692-12.376,26.839-12.4,26.895a33.019,33.019,0,0,0-4.451,12.622,21.061,21.061,0,0,0-14.9-.921,23.16,23.16,0,0,0-11.713,7.73l2.249,2.509a20.111,20.111,0,0,1,10.152-6.718c8.515-2.27,13.536.937,14.345,1.512.011.061.016.123.028.181a11.206,11.206,0,0,0,4.774,7.305,1.282,1.282,0,0,0,.312.164c1.368.527,24.364,9.276,42.473,9.276,7.731,0,14.578-1.593,18.473-6.1a3.311,3.311,0,0,0,.743-2.516c-.356-3.814-7.456-9.593-11.2-12.389ZM70.564,26.657V21.239a1.749,1.749,0,0,1,1.31-1.783,52.53,52.53,0,0,1,8.142,14.99A54.833,54.833,0,0,1,81.5,48.329v6.642a65.635,65.635,0,0,0-9.279-1.224,59.379,59.379,0,0,0-6.92-.036,31.508,31.508,0,0,1-2.124-3.455,41.306,41.306,0,0,0,7.39-23.6Zm7.809,47.118V70H75.249V73.77a90.04,90.04,0,0,1-15.305-1.929,176.794,176.794,0,0,1-24.634-7.1,7.583,7.583,0,0,1-3.191-4.9c-.946-4.86,1.994-10.934,3.9-14.255.092-.191,9.171-19.4,12.522-27.148.231-.56.389-.807,1.715-.807a3.376,3.376,0,0,1,3.124,3.5v5.53a43.539,43.539,0,0,0,3.28,17.061l3.124,7.224a68.1,68.1,0,0,0,4.984,7.5,30.061,30.061,0,0,0,9.883,7.62l1.19-3.339a26.706,26.706,0,0,1-7.6-5.5c1.265,0,2.532.043,3.789.128a58.666,58.666,0,0,1,10.1,1.445c.031.025.055.06.087.083,5.2,3.793,9.916,8.356,10.464,10.063-2.758,3.007-7.6,4.62-14.315,4.836Z" transform="translate(0.154 5.627)"/>
    <path id="Trazado_82" data-name="Trazado 82" d="M51,41h3.124v3.612H51Z" transform="translate(27.527 27.404)"/>
    <path id="Trazado_83" data-name="Trazado 83" d="M31,22h3.124v3.612H31Z" transform="translate(16.292 12.09)"/>
    <path id="Trazado_84" data-name="Trazado 84" d="M32,26h3.124v3.612H32Z" transform="translate(16.854 15.314)"/>
    <path id="Trazado_85" data-name="Trazado 85" d="M49,32h3.124v3.612H49Z" transform="translate(26.404 20.15)"/>
    <path id="Trazado_86" data-name="Trazado 86" d="M49,28h3.124v3.612H49Z" transform="translate(26.404 16.926)"/>
    <path id="Trazado_87" data-name="Trazado 87" d="M48,24h3.124v3.612H48Z" transform="translate(25.842 13.702)"/>
    <path id="Trazado_88" data-name="Trazado 88" d="M33,30h3.124v3.612H33Z" transform="translate(17.415 18.538)"/>
    <path id="Trazado_89" data-name="Trazado 89" d="M11,28.418c0,2.992,2.1,5.418,4.685,5.418s4.685-2.426,4.685-5.418S18.273,23,15.685,23,11,25.426,11,28.418Zm6.247,0a1.7,1.7,0,0,1-1.562,1.806,1.825,1.825,0,0,1,0-3.612A1.7,1.7,0,0,1,17.247,28.418Z" transform="translate(5.056 12.896)"/>
    <path id="Trazado_90" data-name="Trazado 90" d="M22.371,16.418c0-2.992-2.1-5.418-4.685-5.418S13,13.426,13,16.418s2.1,5.418,4.685,5.418,4.685-2.426,4.685-5.418Zm-4.685,1.806a1.7,1.7,0,0,1-1.562-1.806,1.7,1.7,0,0,1,1.562-1.806,1.7,1.7,0,0,1,1.562,1.806A1.7,1.7,0,0,1,17.685,18.224Z" transform="translate(6.18 3.224)"/>
    <path id="Trazado_91" data-name="Trazado 91" d="M6.685,17.836c2.588,0,4.685-2.426,4.685-5.418S9.273,7,6.685,7,2,9.426,2,12.418,4.1,17.836,6.685,17.836Zm0-7.224a1.7,1.7,0,0,1,1.562,1.806,1.7,1.7,0,0,1-1.562,1.806,1.7,1.7,0,0,1-1.562-1.806A1.7,1.7,0,0,1,6.685,10.612Z" transform="translate(0 0)"/>
  </g>
</svg>
