<svg xmlns="http://www.w3.org/2000/svg" width="94" height="73" viewBox="0 0 94 73">
  <path id="send" d="M92.548,2a6.346,6.346,0,0,0-4.843-2,10.246,10.246,0,0,0-3.38.617L4.756,28.5C.534,29.977-.035,32.2,0,33.388s.742,3.378,5.049,4.636l.077.021,16.5,4.335L30.558,65.81a7.621,7.621,0,0,0,7.13,5.178,8.832,8.832,0,0,0,5.706-2.23L53.6,60.129,68.41,71.073l.005,0,.141.1.039.028A9.017,9.017,0,0,0,73.792,73h0a7.09,7.09,0,0,0,6.954-5.934L93.785,7.975A6.6,6.6,0,0,0,92.548,2ZM27.154,41.558,59,26.626,39.169,45.964a2.47,2.47,0,0,0-.668,1.126L34.678,61.306Zm12.509,23.48c-.132.111-.265.211-.4.3l3.547-13.187,6.452,4.769ZM88.387,6.971,75.349,66.063c-.126.565-.526,1.881-1.557,1.881a3.365,3.365,0,0,1-1.8-.718L55.21,54.826,55.2,54.82l-9.984-7.379L73.891,19.475a2.373,2.373,0,0,0,.2-3.25,2.914,2.914,0,0,0-3.455-.733L23.474,37.606,6.745,33.213,86.29,5.341a4.353,4.353,0,0,1,1.416-.285.9.9,0,0,1,.579.144,2.234,2.234,0,0,1,.1,1.771Zm0,0" transform="translate(0)"/>
</svg>
